<svg width="36" height="36" viewBox="0 0 36 36" fill="none" xmlns="http://www.w3.org/2000/svg">
<path d="M20.7656 14.6836C20.5547 14.6836 20.3789 14.6133 20.2383 14.4727C20.0977 14.332 20.0273 14.1602 20.0273 13.957C20.0273 13.7539 20.0977 13.5859 20.2383 13.4531C20.3789 13.3125 20.5547 13.2422 20.7656 13.2422H27.1641C27.3672 13.2422 27.5391 13.3125 27.6797 13.4531C27.8203 13.5859 27.8906 13.7539 27.8906 13.957C27.8906 14.1602 27.8203 14.332 27.6797 14.4727C27.5391 14.6133 27.3672 14.6836 27.1641 14.6836H20.7656ZM20.7656 19.2773C20.5547 19.2773 20.3789 19.207 20.2383 19.0664C20.0977 18.9258 20.0273 18.75 20.0273 18.5391C20.0273 18.3438 20.0977 18.1797 20.2383 18.0469C20.3789 17.9062 20.5547 17.8359 20.7656 17.8359H27.1641C27.3672 17.8359 27.5391 17.9062 27.6797 18.0469C27.8203 18.1797 27.8906 18.3438 27.8906 18.5391C27.8906 18.75 27.8203 18.9258 27.6797 19.0664C27.5391 19.207 27.3672 19.2773 27.1641 19.2773H20.7656ZM20.7656 23.8594C20.5547 23.8594 20.3789 23.793 20.2383 23.6602C20.0977 23.5195 20.0273 23.3516 20.0273 23.1562C20.0273 22.9531 20.0977 22.7812 20.2383 22.6406C20.3789 22.4922 20.5547 22.418 20.7656 22.418H27.1641C27.3672 22.418 27.5391 22.4922 27.6797 22.6406C27.8203 22.7812 27.8906 22.9531 27.8906 23.1562C27.8906 23.3516 27.8203 23.5195 27.6797 23.6602C27.5391 23.793 27.3672 23.8594 27.1641 23.8594H20.7656ZM8.55469 23.8594C8.36719 23.8594 8.22266 23.8008 8.12109 23.6836C8.02734 23.5664 7.98047 23.4219 7.98047 23.25C7.98047 22.9766 8.08203 22.6211 8.28516 22.1836C8.49609 21.7461 8.8125 21.3086 9.23438 20.8711C9.66406 20.4258 10.1992 20.0547 10.8398 19.7578C11.4883 19.4609 12.25 19.3125 13.125 19.3125C14 19.3125 14.7617 19.4609 15.4102 19.7578C16.0586 20.0547 16.5938 20.4258 17.0156 20.8711C17.4453 21.3086 17.7617 21.7461 17.9648 22.1836C18.1758 22.6211 18.2812 22.9766 18.2812 23.25C18.2812 23.4219 18.2305 23.5664 18.1289 23.6836C18.0352 23.8008 17.8945 23.8594 17.707 23.8594H8.55469ZM13.125 18.4922C12.4219 18.4922 11.8164 18.2266 11.3086 17.6953C10.8086 17.1641 10.5586 16.4961 10.5586 15.6914C10.5586 15.1914 10.6719 14.7344 10.8984 14.3203C11.1328 13.9062 11.4453 13.5742 11.8359 13.3242C12.2266 13.0742 12.6562 12.9492 13.125 12.9492C13.6016 12.9492 14.0312 13.0742 14.4141 13.3242C14.8047 13.5742 15.1133 13.9062 15.3398 14.3203C15.5742 14.7344 15.6914 15.1914 15.6914 15.6914C15.6914 16.4961 15.4414 17.1641 14.9414 17.6953C14.4414 18.2266 13.8359 18.4922 13.125 18.4922ZM7.86328 29.332C6.63672 29.332 5.71484 29.0273 5.09766 28.418C4.48828 27.8164 4.18359 26.9141 4.18359 25.7109V11.3906C4.18359 10.1797 4.48828 9.27344 5.09766 8.67188C5.71484 8.0625 6.63672 7.75781 7.86328 7.75781H28.1367C29.3711 7.75781 30.293 8.0625 30.9023 8.67188C31.5117 9.28125 31.8164 10.1875 31.8164 11.3906V25.7109C31.8164 26.9141 31.5117 27.8164 30.9023 28.418C30.293 29.0273 29.3711 29.332 28.1367 29.332H7.86328ZM7.88672 27.4453H28.1133C28.6914 27.4453 29.1367 27.293 29.4492 26.9883C29.7695 26.6758 29.9297 26.2148 29.9297 25.6055V11.4961C29.9297 10.8867 29.7695 10.4258 29.4492 10.1133C29.1367 9.80078 28.6914 9.64453 28.1133 9.64453H7.88672C7.30078 9.64453 6.85156 9.80078 6.53906 10.1133C6.22656 10.4258 6.07031 10.8867 6.07031 11.4961V25.6055C6.07031 26.2148 6.22656 26.6758 6.53906 26.9883C6.85156 27.293 7.30078 27.4453 7.88672 27.4453Z" fill="#333333"/>
</svg>
