<svg width="20" height="20" viewBox="0 0 20 20" fill="none" xmlns="http://www.w3.org/2000/svg">
<path d="M5.5 18.1484C4.65625 18.1484 4.01823 17.9349 3.58594 17.5078C3.15365 17.0807 2.9375 16.4479 2.9375 15.6094V7.92188C2.9375 7.08854 3.15365 6.45833 3.58594 6.03125C4.01823 5.59896 4.65625 5.38281 5.5 5.38281H7.76562V6.92188H5.59375C5.22917 6.92188 4.95052 7.01823 4.75781 7.21094C4.57031 7.39844 4.47656 7.68229 4.47656 8.0625V15.4766C4.47656 15.8568 4.57031 16.1406 4.75781 16.3281C4.95052 16.5208 5.22917 16.6172 5.59375 16.6172H14.3984C14.7578 16.6172 15.0339 16.5208 15.2266 16.3281C15.4245 16.1406 15.5234 15.8568 15.5234 15.4766V8.0625C15.5234 7.68229 15.4245 7.39844 15.2266 7.21094C15.0339 7.01823 14.7578 6.92188 14.3984 6.92188H12.2344V5.38281H14.5C15.3438 5.38281 15.9818 5.59896 16.4141 6.03125C16.8464 6.45833 17.0625 7.08854 17.0625 7.92188V15.6094C17.0625 16.4427 16.8464 17.0729 16.4141 17.5C15.9818 17.9323 15.3438 18.1484 14.5 18.1484H5.5ZM10 13.0859C9.90625 13.0859 9.8151 13.0703 9.72656 13.0391C9.63802 13.0026 9.54427 12.9375 9.44531 12.8438L6.82031 10.3125C6.6901 10.1771 6.625 10.0234 6.625 9.85156C6.625 9.66927 6.6849 9.52083 6.80469 9.40625C6.92969 9.29167 7.08333 9.23438 7.26562 9.23438C7.46354 9.23438 7.625 9.30469 7.75 9.44531L8.84375 10.6094L9.35156 11.1797L9.27344 10.0156V1.92188C9.27344 1.72917 9.34375 1.5625 9.48438 1.42188C9.63021 1.28125 9.80208 1.21094 10 1.21094C10.1979 1.21094 10.3672 1.28125 10.5078 1.42188C10.6536 1.5625 10.7266 1.72917 10.7266 1.92188V10.0156L10.6484 11.1797L11.1484 10.6094L12.2422 9.44531C12.3724 9.30469 12.5339 9.23438 12.7266 9.23438C12.9036 9.23438 13.0547 9.29167 13.1797 9.40625C13.3099 9.52083 13.375 9.66927 13.375 9.85156C13.375 10.0234 13.3073 10.1771 13.1719 10.3125L10.5469 12.8438C10.4531 12.9375 10.362 13.0026 10.2734 13.0391C10.1849 13.0703 10.0938 13.0859 10 13.0859Z" fill="white"/>
</svg>
