<svg width="20" height="20" viewBox="0 0 20 20" fill="none" xmlns="http://www.w3.org/2000/svg">
<path d="M3.46094 9.85938C3.46094 9.61979 3.54688 9.41406 3.71875 9.24219C3.89062 9.0651 4.09635 8.97656 4.33594 8.97656H9.125V4.19531C9.125 3.95573 9.21094 3.75 9.38281 3.57812C9.55469 3.40625 9.76042 3.32031 10 3.32031C10.2448 3.32031 10.4531 3.40625 10.625 3.57812C10.7969 3.75 10.8828 3.95573 10.8828 4.19531V8.97656H15.6641C15.9036 8.97656 16.1094 9.0651 16.2812 9.24219C16.4531 9.41406 16.5391 9.61979 16.5391 9.85938C16.5391 10.1042 16.4531 10.3125 16.2812 10.4844C16.1094 10.651 15.9036 10.7344 15.6641 10.7344H10.8828V15.5312C10.8828 15.7656 10.7969 15.9688 10.625 16.1406C10.4531 16.3125 10.2448 16.3984 10 16.3984C9.76042 16.3984 9.55469 16.3125 9.38281 16.1406C9.21094 15.9688 9.125 15.7656 9.125 15.5312V10.7344H4.33594C4.09635 10.7344 3.89062 10.651 3.71875 10.4844C3.54688 10.3125 3.46094 10.1042 3.46094 9.85938Z" fill="white"/>
</svg>
