<svg width="24" height="24" viewBox="0 0 24 24" fill="none" xmlns="http://www.w3.org/2000/svg">
<path d="M8.71289 20.1182C7.94531 20.1182 7.36816 19.9248 6.98145 19.5381C6.59473 19.1572 6.40137 18.5771 6.40137 17.7979L9.25781 15.2842C9.42188 15.1494 9.58594 15.0469 9.75 14.9766C9.91406 14.9062 10.0811 14.8711 10.251 14.8711C10.4326 14.8711 10.6084 14.9062 10.7783 14.9766C10.9541 15.041 11.124 15.1494 11.2881 15.3018L12.668 16.5498L16.1309 13.4824C16.3066 13.3242 16.4883 13.21 16.6758 13.1396C16.8691 13.0693 17.0713 13.0342 17.2822 13.0342C17.4873 13.0342 17.6895 13.0723 17.8887 13.1484C18.0879 13.2246 18.2695 13.3389 18.4336 13.4912L22.5117 17.3232V17.8154C22.5117 18.5889 22.3184 19.166 21.9316 19.5469C21.5449 19.9277 20.9707 20.1182 20.209 20.1182H8.71289ZM12.0879 13.6758C11.5781 13.6758 11.1416 13.4941 10.7783 13.1309C10.4209 12.7617 10.2422 12.3223 10.2422 11.8125C10.2422 11.3145 10.4209 10.8838 10.7783 10.5205C11.1416 10.1514 11.5781 9.9668 12.0879 9.9668C12.4277 9.9668 12.7354 10.0518 13.0107 10.2217C13.292 10.3916 13.5146 10.6172 13.6787 10.8984C13.8428 11.1797 13.9248 11.4844 13.9248 11.8125C13.9248 12.3223 13.7432 12.7617 13.3799 13.1309C13.0225 13.4941 12.5918 13.6758 12.0879 13.6758ZM2.12988 15.583L0.679688 7.36523C0.515625 6.43945 0.629883 5.69824 1.02246 5.1416C1.4209 4.5791 2.08887 4.21289 3.02637 4.04297L14.8389 1.96875C15.7764 1.79883 16.5234 1.91016 17.0801 2.30273C17.6426 2.69531 18.0088 3.35449 18.1787 4.28027L18.6973 7.17188H16.9395L16.5088 4.71973C16.4326 4.30371 16.2656 4.01074 16.0078 3.84082C15.7559 3.6709 15.4336 3.61816 15.041 3.68262L3.43066 5.73047C3.02637 5.80078 2.7334 5.96191 2.55176 6.21387C2.37598 6.45996 2.32617 6.79395 2.40234 7.21582L3.80859 15.1436C3.88477 15.5654 4.0459 15.8613 4.29199 16.0312C4.54395 16.2012 4.87207 16.251 5.27637 16.1807L6.66504 15.9346V17.6836L5.46973 17.9033C4.53223 18.0615 3.78223 17.9473 3.21973 17.5605C2.66309 17.168 2.2998 16.5088 2.12988 15.583ZM8.50195 20.7773C7.54687 20.7773 6.82617 20.5342 6.33984 20.0479C5.85352 19.5674 5.61035 18.8584 5.61035 17.9209V9.57129C5.61035 8.62793 5.85352 7.91602 6.33984 7.43555C6.82617 6.95508 7.54687 6.71484 8.50195 6.71484H20.4902C21.4395 6.71484 22.1572 6.95801 22.6436 7.44434C23.1357 7.9248 23.3818 8.63379 23.3818 9.57129V17.9209C23.3818 18.8584 23.1357 19.5674 22.6436 20.0479C22.1572 20.5342 21.4395 20.7773 20.4902 20.7773H8.50195ZM8.59863 19.0459H20.3848C20.7891 19.0459 21.0996 18.9404 21.3164 18.7295C21.5391 18.5186 21.6504 18.1992 21.6504 17.7715V9.7207C21.6504 9.29297 21.5391 8.97363 21.3164 8.7627C21.0996 8.5459 20.7891 8.4375 20.3848 8.4375H8.59863C8.18848 8.4375 7.875 8.5459 7.6582 8.7627C7.44727 8.97363 7.3418 9.29297 7.3418 9.7207V17.7715C7.3418 18.1992 7.44727 18.5186 7.6582 18.7295C7.875 18.9404 8.18848 19.0459 8.59863 19.0459Z" fill="#333333"/>
</svg>
