<svg width="25" height="24" viewBox="0 0 25 24" fill="none" xmlns="http://www.w3.org/2000/svg">
<path d="M6.39258 20.1445C5.77734 20.0391 5.31152 19.8018 4.99512 19.4326C4.67871 19.0693 4.52051 18.5859 4.52051 17.9824V5.58105C4.52051 5.10645 4.62012 4.70508 4.81934 4.37695C5.01855 4.04883 5.29688 3.81738 5.6543 3.68262C6.01758 3.54199 6.43945 3.5127 6.91992 3.59473L16.623 5.30859C17.5781 5.47852 18.293 5.78027 18.7676 6.21387C19.2422 6.6416 19.4795 7.33008 19.4795 8.2793V19.1074C19.4795 19.793 19.3535 20.3643 19.1016 20.8213C18.8555 21.2842 18.501 21.6094 18.0381 21.7969C17.5811 21.9844 17.0361 22.0225 16.4033 21.9111L6.39258 20.1445ZM6.91113 18.4307L16.3594 20.1006C16.7754 20.1826 17.1035 20.1182 17.3438 19.9072C17.5898 19.7021 17.7129 19.3799 17.7129 18.9404V8.26172C17.7129 7.89258 17.6074 7.61719 17.3965 7.43555C17.1914 7.24805 16.8896 7.11914 16.4912 7.04883L7.07812 5.39648C6.83203 5.34961 6.63867 5.38184 6.49805 5.49316C6.35742 5.60449 6.28711 5.77148 6.28711 5.99414V17.6748C6.28711 17.8916 6.33691 18.0615 6.43652 18.1846C6.53613 18.3135 6.69434 18.3955 6.91113 18.4307ZM17.0273 6.71484V4.44727C17.0273 4.08984 16.9072 3.83203 16.667 3.67383C16.4268 3.50977 16.1016 3.46289 15.6914 3.5332L6.5332 5.07129L5.9707 3.60352L15.1377 1.97754C16.251 1.78418 17.1211 1.91309 17.748 2.36426C18.3809 2.81543 18.6973 3.5332 18.6973 4.51758V6.71484H17.0273ZM8.43164 9.29004C8.27344 9.26074 8.14746 9.1875 8.05371 9.07031C7.96582 8.95312 7.92188 8.8125 7.92188 8.64844C7.92188 8.44336 7.99219 8.28516 8.13281 8.17383C8.2793 8.05664 8.46387 8.01855 8.68652 8.05957L15.1992 9.20215C15.5508 9.26074 15.7266 9.46875 15.7266 9.82617C15.7266 10.0312 15.6592 10.1953 15.5244 10.3184C15.3896 10.4414 15.2109 10.4824 14.9883 10.4414L8.43164 9.29004ZM8.43164 12.6826C8.27344 12.6592 8.14746 12.5918 8.05371 12.4805C7.96582 12.3633 7.92188 12.2168 7.92188 12.041C7.92188 11.8477 7.99219 11.6924 8.13281 11.5752C8.2793 11.458 8.46387 11.417 8.68652 11.4521L15.1992 12.5947C15.5508 12.6592 15.7266 12.8701 15.7266 13.2275C15.7266 13.4268 15.6592 13.5908 15.5244 13.7197C15.3896 13.8428 15.2109 13.8838 14.9883 13.8428L8.43164 12.6826Z" fill="#333333"/>
</svg>
