<svg width="120" height="32" viewBox="0 0 120 32" fill="none" xmlns="http://www.w3.org/2000/svg">
<path d="M10.9788 25H4.85878L4.61878 23.008C4.82678 22.736 5.26678 22.472 5.93878 22.216V11.248C5.28278 11.008 4.84278 10.736 4.61878 10.432L4.85878 8.44H10.2108C12.7868 8.44 14.8268 9.16 16.3308 10.6C17.8508 12.04 18.6108 14.16 18.6108 16.96C18.6108 19.744 17.9228 21.784 16.5468 23.08C15.1868 24.36 13.3308 25 10.9788 25ZM9.39478 22.384H11.1228C12.3228 22.384 13.2668 22.024 13.9548 21.304C14.6588 20.568 15.0108 19.152 15.0108 17.056C15.0108 13.056 13.4988 11.056 10.4748 11.056H9.39478V22.384ZM21.5767 14.776C21.5767 14.536 21.5847 14.28 21.6007 14.008C23.0887 13.208 24.6887 12.808 26.4007 12.808C28.1127 12.808 29.3367 13.136 30.0727 13.792C30.8247 14.432 31.2007 15.504 31.2007 17.008V22.12C31.7607 22.232 32.2007 22.368 32.5207 22.528V24.616C31.7047 25 30.5367 25.192 29.0167 25.192C28.8567 24.776 28.7207 24.272 28.6087 23.68C27.9207 24.688 26.6727 25.192 24.8647 25.192C23.7927 25.192 22.8727 24.88 22.1047 24.256C21.3527 23.632 20.9767 22.784 20.9767 21.712C20.9767 20.64 21.3287 19.8 22.0327 19.192C22.7527 18.568 23.8167 18.256 25.2247 18.256H27.8407V17.104C27.8407 15.856 27.1767 15.232 25.8487 15.232C25.3527 15.232 24.9447 15.28 24.6247 15.376C24.5927 16.048 24.4967 16.568 24.3367 16.936H21.9847C21.7127 16.376 21.5767 15.656 21.5767 14.776ZM25.8967 22.744C26.7127 22.744 27.3607 22.504 27.8407 22.024V20.056H26.1607C25.0087 20.056 24.4327 20.496 24.4327 21.376C24.4327 21.776 24.5527 22.104 24.7927 22.36C25.0487 22.616 25.4167 22.744 25.8967 22.744ZM38.9459 9.976V13H42.3779V15.016H38.9459V21.088C38.9459 21.6 39.0179 21.976 39.1619 22.216C39.3059 22.44 39.6499 22.552 40.1939 22.552C40.7379 22.552 41.3219 22.432 41.9459 22.192L42.6659 24.064C41.4339 24.688 40.1699 25 38.8739 25C37.5939 25 36.7219 24.728 36.2579 24.184C35.8099 23.624 35.5859 22.816 35.5859 21.76V15.016H34.5059L34.2419 13.552C34.4979 13.248 35.0259 12.944 35.8259 12.64C36.0179 11.328 36.4739 10.44 37.1939 9.976H38.9459ZM45.1876 14.776C45.1876 14.536 45.1956 14.28 45.2116 14.008C46.6996 13.208 48.2996 12.808 50.0116 12.808C51.7236 12.808 52.9476 13.136 53.6836 13.792C54.4356 14.432 54.8116 15.504 54.8116 17.008V22.12C55.3716 22.232 55.8116 22.368 56.1316 22.528V24.616C55.3156 25 54.1476 25.192 52.6276 25.192C52.4676 24.776 52.3316 24.272 52.2196 23.68C51.5316 24.688 50.2836 25.192 48.4756 25.192C47.4036 25.192 46.4836 24.88 45.7156 24.256C44.9636 23.632 44.5876 22.784 44.5876 21.712C44.5876 20.64 44.9396 19.8 45.6436 19.192C46.3636 18.568 47.4276 18.256 48.8356 18.256H51.4516V17.104C51.4516 15.856 50.7876 15.232 49.4596 15.232C48.9636 15.232 48.5556 15.28 48.2356 15.376C48.2036 16.048 48.1076 16.568 47.9476 16.936H45.5956C45.3236 16.376 45.1876 15.656 45.1876 14.776ZM49.5076 22.744C50.3236 22.744 50.9716 22.504 51.4516 22.024V20.056H49.7716C48.6196 20.056 48.0436 20.496 48.0436 21.376C48.0436 21.776 48.1636 22.104 48.4036 22.36C48.6596 22.616 49.0276 22.744 49.5076 22.744ZM64.0208 8.44C65.9088 8.44 67.2768 8.56 68.1248 8.8C68.9888 9.024 69.6048 9.296 69.9728 9.616C70.7888 10.32 71.1968 11.4 71.1968 12.856C71.1968 13.944 70.6128 14.976 69.4448 15.952C70.9328 16.704 71.6768 18.104 71.6768 20.152C71.6768 21.752 71.1488 22.944 70.0928 23.728C69.0528 24.496 67.4928 24.92 65.4128 25H58.5728L58.3328 23.008C58.5408 22.736 58.9808 22.472 59.6528 22.216V11.248C58.9968 11.008 58.5568 10.736 58.3328 10.432L58.5728 8.44H64.0208ZM65.2448 17.824H63.1088V22.384H64.7648C65.8528 22.384 66.6768 22.224 67.2368 21.904C67.7968 21.584 68.0768 21.008 68.0768 20.176C68.0768 19.344 67.8528 18.744 67.4048 18.376C66.9728 18.008 66.2528 17.824 65.2448 17.824ZM64.3568 11.056H63.1088V15.208H65.0768C65.8928 15.208 66.5168 15 66.9488 14.584C67.3808 14.168 67.5968 13.664 67.5968 13.072C67.5968 12.464 67.4448 12.008 67.1408 11.704C66.8368 11.4 66.4848 11.216 66.0848 11.152C65.6848 11.088 65.1088 11.056 64.3568 11.056ZM74.6813 14.776C74.6813 14.536 74.6893 14.28 74.7053 14.008C76.1933 13.208 77.7933 12.808 79.5053 12.808C81.2173 12.808 82.4413 13.136 83.1773 13.792C83.9293 14.432 84.3053 15.504 84.3053 17.008V22.12C84.8653 22.232 85.3053 22.368 85.6253 22.528V24.616C84.8093 25 83.6413 25.192 82.1213 25.192C81.9613 24.776 81.8253 24.272 81.7133 23.68C81.0253 24.688 79.7773 25.192 77.9693 25.192C76.8973 25.192 75.9773 24.88 75.2093 24.256C74.4573 23.632 74.0813 22.784 74.0813 21.712C74.0813 20.64 74.4333 19.8 75.1373 19.192C75.8573 18.568 76.9213 18.256 78.3293 18.256H80.9453V17.104C80.9453 15.856 80.2813 15.232 78.9533 15.232C78.4573 15.232 78.0493 15.28 77.7293 15.376C77.6973 16.048 77.6013 16.568 77.4413 16.936H75.0893C74.8173 16.376 74.6813 15.656 74.6813 14.776ZM79.0013 22.744C79.8173 22.744 80.4653 22.504 80.9453 22.024V20.056H79.2653C78.1133 20.056 77.5373 20.496 77.5373 21.376C77.5373 21.776 77.6573 22.104 77.8973 22.36C78.1533 22.616 78.5213 22.744 79.0013 22.744ZM87.9226 13C88.8026 12.808 89.5946 12.712 90.2986 12.712C91.0026 12.712 91.5866 12.728 92.0506 12.76V13.96C92.4506 13.624 92.9786 13.352 93.6346 13.144C94.3066 12.92 94.9466 12.808 95.5546 12.808C97.1226 12.808 98.2186 13.176 98.8426 13.912C99.4826 14.648 99.8026 15.92 99.8026 17.728V22.336C100.427 22.576 100.867 22.848 101.123 23.152L100.883 25H95.3626L95.1226 23.152C95.3466 22.848 95.7866 22.576 96.4426 22.336V17.584C96.4426 16.72 96.2986 16.144 96.0106 15.856C95.7386 15.552 95.2426 15.4 94.5226 15.4C93.8026 15.4 93.0826 15.656 92.3626 16.168V22.336C92.9866 22.576 93.4266 22.848 93.6826 23.152L93.4426 25H87.9226L87.6826 23.152C87.9066 22.848 88.3466 22.576 89.0026 22.336V15.664C88.4426 15.472 88.0026 15.2 87.6826 14.848L87.9226 13ZM103.108 7.96C104.004 7.752 104.836 7.648 105.604 7.648C106.372 7.648 107.02 7.672 107.548 7.72V22.336C108.172 22.576 108.612 22.848 108.868 23.152L108.628 25H103.108L102.868 23.152C103.092 22.848 103.532 22.576 104.188 22.336V10.624C103.628 10.432 103.188 10.16 102.868 9.808L103.108 7.96ZM112.012 25L107.764 18.784L110.404 15.352C110.132 15.192 109.94 15.024 109.828 14.848L110.068 13H115.348L115.588 14.848C115.236 15.296 114.572 15.648 113.596 15.904L111.292 18.544L114.004 22.12C114.996 22.344 115.692 22.688 116.092 23.152L115.852 25H112.012Z" fill="#072349"/>
</svg>
